<?xml version="1.0" encoding="utf-8"?>
<!-- Generator: Adobe Illustrator 23.0.2, SVG Export Plug-In . SVG Version: 6.00 Build 0)  -->
<svg version="1.1" id="Layer_1" xmlns="http://www.w3.org/2000/svg" xmlns:xlink="http://www.w3.org/1999/xlink" x="0px" y="0px"
	 viewBox="0 0 50 50" style="enable-background:new 0 0 50 50;" xml:space="preserve">
<style type="text/css">
	.st0{fill:#212121;}
	.st1{fill:#FFFFFF;}
	.st2{fill:none;}
</style>
<title>Twitter_Logo_White-on-Blue</title>
<g id="Dark_Blue">
	<path class="st0" d="M25,0L25,0c13.8,0,25,11.2,25,25v0c0,13.8-11.2,25-25,25h0C11.2,50,0,38.8,0,25v0C0,11.2,11.2,0,25,0z"/>
</g>
<g id="Logo_FIXED">
	<path class="st1" d="M19.2,37.7c11.8,0,18.2-9.8,18.2-18.2c0-0.3,0-0.6,0-0.8c1.3-0.9,2.3-2,3.2-3.3c-1.2,0.5-2.4,0.9-3.7,1
		c1.3-0.8,2.3-2.1,2.8-3.5c-1.3,0.7-2.6,1.3-4.1,1.6c-2.4-2.6-6.5-2.7-9.1-0.3c-1.7,1.6-2.4,3.9-1.9,6.1c-5.2-0.3-10-2.7-13.2-6.7
		c-1.7,2.9-0.8,6.7,2,8.6c-1,0-2-0.3-2.9-0.8c0,0,0,0.1,0,0.1c0,3.1,2.2,5.7,5.1,6.3c-0.9,0.3-1.9,0.3-2.9,0.1
		c0.8,2.6,3.2,4.4,6,4.5c-2.3,1.8-5.1,2.8-8,2.8c-0.5,0-1,0-1.5-0.1C12.3,36.7,15.7,37.7,19.2,37.7"/>
	<rect class="st2" width="50" height="50"/>
</g>
</svg>
